<?xml version="1.0" standalone="no"?>
<!DOCTYPE svg PUBLIC "-//W3C//DTD SVG 20010904//EN"
 "http://www.w3.org/TR/2001/REC-SVG-20010904/DTD/svg10.dtd">
<svg version="1.0" xmlns="http://www.w3.org/2000/svg"
 width="512.000000pt" height="512.000000pt" viewBox="0 0 512.000000 512.000000"
 preserveAspectRatio="xMidYMid meet">
<metadata>
Created by potrace 1.16, written by Peter Selinger 2001-2019
</metadata>
<g transform="translate(0.000000,512.000000) scale(0.100000,-0.100000)"
fill="#000000" stroke="none">
<path d="M2240 5105 c-389 -48 -766 -188 -1091 -404 -504 -335 -871 -825
-1043 -1395 -41 -132 -81 -333 -96 -468 -13 -125 -13 -431 0 -556 108 -1014
825 -1880 1804 -2176 132 -41 333 -81 468 -96 125 -13 431 -13 556 0 592 63
1141 332 1563 766 289 299 494 645 613 1038 74 243 106 468 106 746 0 209 -10
324 -46 505 -181 920 -867 1676 -1768 1949 -132 41 -333 81 -468 96 -131 14
-469 11 -598 -5z m1970 -2225 l0 -930 -49 0 -50 0 -22 71 c-12 39 -39 103 -59
143 l-37 71 60 62 60 62 -39 48 c-50 61 -106 117 -167 167 l-48 39 -57 -56
c-32 -32 -62 -57 -68 -57 -6 0 -41 16 -78 35 -37 19 -98 44 -136 56 l-69 21
-3 86 -3 87 -50 8 c-51 8 -252 2 -292 -9 -22 -6 -23 -12 -23 -90 0 -59 -4 -86
-12 -88 -7 -3 -39 -12 -71 -22 -33 -9 -91 -34 -130 -54 l-72 -37 -62 60 -61
60 -67 -53 c-58 -46 -185 -183 -185 -200 0 -3 25 -30 55 -60 30 -30 55 -58 55
-63 0 -5 -17 -44 -38 -86 -21 -42 -47 -106 -57 -143 l-20 -68 -87 0 -86 0 -8
-77 c-7 -80 0 -255 11 -273 3 -5 42 -10 88 -10 l82 0 22 -70 c12 -38 36 -97
53 -131 16 -33 30 -63 30 -65 0 -2 -362 -4 -805 -4 l-805 0 0 1250 0 1250
1650 0 1650 0 0 -930z m-805 -764 c201 -84 292 -326 196 -520 -56 -115 -158
-186 -294 -208 -66 -10 -85 -9 -139 6 -102 28 -202 106 -247 194 -117 224 30
515 278 551 57 8 157 -3 206 -23z m805 -671 l0 -135 -104 0 -104 0 33 63 c18
34 43 95 55 135 l22 72 49 0 49 0 0 -135z"/>
<path d="M1283 3283 c-4 -10 -57 -151 -120 -313 -62 -162 -113 -298 -113 -302
0 -5 33 -8 74 -8 l75 0 22 70 23 71 105 -3 104 -3 22 -65 22 -65 76 -3 c42 -2
77 -1 77 2 0 4 -197 522 -231 609 -11 25 -15 27 -71 27 -47 0 -60 -4 -65 -17z
m106 -260 c17 -55 31 -106 31 -112 0 -7 -28 -11 -76 -11 -64 0 -75 2 -70 15 3
9 20 63 38 120 17 58 35 102 39 98 3 -5 21 -54 38 -110z"/>
<path d="M1720 2980 l0 -320 70 0 70 0 0 104 0 104 104 4 c99 3 106 4 143 34
45 36 79 94 88 146 9 54 -17 136 -57 177 -60 61 -94 71 -265 71 l-153 0 0
-320z m309 164 c27 -34 28 -94 2 -125 -16 -20 -30 -24 -95 -27 l-76 -4 0 91 0
91 74 0 c69 0 76 -2 95 -26z"/>
<path d="M2280 2980 l0 -320 70 0 70 0 0 320 0 320 -70 0 -70 0 0 -320z"/>
</g>
</svg>
